<svg xmlns="http://www.w3.org/2000/svg" width="480" height="640" viewBox="0 0 480 640">
  <defs>
    <linearGradient id="sheen" x1="0" y1="0" x2="1" y2="1">
      <stop offset="0" stop-color="#ffffff" stop-opacity="0.18"/>
      <stop offset="0.5" stop-color="#ffffff" stop-opacity="0"/>
      <stop offset="1" stop-color="#000000" stop-opacity="0.12"/>
    </linearGradient>
  </defs>
  
      <rect x="0" y="0" width="480" height="640" fill="#e9e4d8"/>
      
    <rect x="0" y="0" width="480" height="8" fill="#c60b1e"/>
    <rect x="0" y="8" width="480" height="8" fill="#ffc400"/>
    <rect x="0" y="16" width="480" height="8" fill="#c60b1e"/>
      <rect x="26" y="46" width="428" height="150" rx="6" fill="#ffffff" stroke="#b8b0a0"/>
      <rect x="34" y="54" width="150" height="134" rx="4" fill="#0f7b52" opacity="0.85"/>
      <text x="109" y="128" text-anchor="middle" font-family="Arial, sans-serif" font-size="46" fill="#eafff5">✦</text>
      <text x="30" y="240" font-family="Arial, sans-serif" font-size="20" font-weight="bold" fill="#333">PAL ESPAÑA</text>
      <text x="30" y="270" font-family="Arial, sans-serif" font-size="16" fill="#555">Totalmente en castellano</text>
      <rect x="26" y="300" width="428" height="150" rx="6" fill="#f6f3ea" stroke="#cfc7b6"/>
      <foreignObject x="40" y="312" width="400" height="130">
        <div xmlns="http://www.w3.org/1999/xhtml" style="font-family:Arial,sans-serif;font-size:15px;color:#333;line-height:1.35">Conviértete en Campeón de la Liga Pokémon mientras frustras los planes de los Equipos Aqua y Magma. Explora la región de Hoenn.</div>
      </foreignObject>
      <text x="30" y="500" font-family="Arial, sans-serif" font-size="16" font-weight="bold" fill="#333">Idiomas / Languages:</text>
      <text x="30" y="528" font-family="Arial, sans-serif" font-size="20" fill="#0b5c3d" font-weight="bold">ES · EN · FR · DE · IT</text>
      <rect x="300" y="470" width="150" height="70" rx="8" fill="#111" />
      <text x="375" y="500" text-anchor="middle" font-family="Arial, sans-serif" font-size="13" fill="#fff">PEGI</text>
      <text x="375" y="524" text-anchor="middle" font-family="Arial, sans-serif" font-size="26" fill="#fff" font-weight="bold">3</text>
      <text x="30" y="600" font-family="monospace" font-size="14" fill="#666">AGB-BPEE-ES</text>
    
  
</svg>